poster: 
http://imgh.us/Madagascar-3-Europes-Most-Wanted-Poster-004.jpg

Plot:
Alex, Marty, Gloria and Melman are still fighting to get home to their beloved Big Apple. Their journey takes them through Europe where they find the perfect cover: a traveling circus, which they reinvent - Madagascar style. 
 
http://www.imdb.com/title/tt1277953/

Source - Spanish Thanks

Format : AVI
Format/Info : Audio Video Interleave
File size : 691 MiB
Duration : 1h 22mn
Overall bit rate : 1 177 Kbps
Writing application : Lavf52.61.0
Writing library : VirtualDub build 34703/release

Video
ID : 0
Format : MPEG-4 Visual
Format profile : Advanced Simple@L5
Format settings, BVOP : 2
Format settings, QPel : No
Format settings, GMC : No warppoints
Format settings, Matrix : Default (H.263)
Muxing mode : Packed bitstream
Codec ID : XVID
Codec ID/Hint : XviD
Duration : 1h 22mn
Bit rate : 1 101 Kbps
Width : 640 pixels
Height : 336 pixels
Display aspect ratio : 1.905
Frame rate : 29.970 fps
Color space : YUV
Chroma subsampling : 4:2:0
Bit depth : 8 bits
Scan type : Progressive
Compression mode : Lossy
Bits/(Pixel*Frame) : 0.171
Stream size : 647 MiB (94%)
Writing library : XviD 64

Audio
ID : 1
Format : MPEG Audio
Format version : Version 1
Format profile : Layer 3
Codec ID : 55
Codec ID/Hint : MP3
Duration : 1h 22mn
Bit rate mode : Constant
Bit rate : 64.0 Kbps
Channel(s) : 2 channels
Sampling rate : 44.1 KHz
Compression mode : Lossy
Stream size : 37.6 MiB (5%)
Alignment : Split accross interleaves
Interleave, duration : 33 ms (1.00 video frame)
Interleave, preload duration : 500 ms



Encoder notes- ok, cam was a wierd source, like two sources choped together with loads of dupe frames etc. anyway used the magical boom boom filters and compressed it down.
audio is awesome as usual (Thanks Bro), a little crackle in one song. Compressed audio down, but way better in propotion to the video, when this secret 720 cam appears,
maybe we will add some super duper HQ Line to it. but im sure you will agree , this is great for under 700mb. Enjoy 

SCREENS: 
http://imgh.us/fM1kqDho.jpeg